# xmcd
#
# Track frame offsets: 
#        150
#        14342
#        25779
#        38944
#        51239
#        61954
#        72929
#        85091
#        98066
#        110065
#        125183
#        138138
#        151042
#        163329
#        175622
#        188896
#        201387
#        212173
#        223074
#        234409
#        243935
#        255366
#        264708
#        274093
#
# Disc length: 3816 seconds
#
# Revision: 1
# Processed by: cddbd v1.5.2PL0 Copyright (c) Steve Scherf et al.
# Submitted via: ExactAudioCopyFreeDBPlugin 1.0
#
DISCID=5b0ee618
DTITLE=The Four Vagabonds - Complete Recorded Works Vol. 1 (1941-1951)
DYEAR=1900
DGENRE=Vocal
TTITLE0=Slow and Easy
TTITLE1=The Duke of Dubuque
TTITLE2=I Had the Craziest Dream
TTITLE3=Rose Ann of Charing Cross
TTITLE4=Rosie the Riveter
TTITLE5=Ten Little Soldiers
TTITLE6=It Can't Be Wrong
TTITLE7=Comin' In on a Wing and a Prayer
TTITLE8=A G.I. Wish
TTITLE9=If I Were You
TTITLE10=Taking My Chance with You
TTITLE11=When the Old Gang's Back on the Corner
TTITLE12=Oh, What a Polka
TTITLE13=I Can't Make Up My Mind
TTITLE14=My Heart Cries
TTITLE15=Mighty Hard to Go Through Life Alone
TTITLE16=The Object of My Affection
TTITLE17=Move It Over
TTITLE18=There Are Such Things
TTITLE19=Steam Is on the Beam
TTITLE20=Stop Telling Lies
TTITLE21=Rosie the Riveter
TTITLE22=Big Fat Mama
TTITLE23=Massachusetts
EXTD=Document Records\nDOCD 5635
EXTT0=
EXTT1=
EXTT2=
EXTT3=
EXTT4=
EXTT5=
EXTT6=
EXTT7=
EXTT8=
EXTT9=
EXTT10=
EXTT11=
EXTT12=
EXTT13=
EXTT14=
EXTT15=
EXTT16=
EXTT17=
EXTT18=
EXTT19=
EXTT20=
EXTT21=
EXTT22=
EXTT23=
PLAYORDER=
